<svg xmlns="http://www.w3.org/2000/svg" xmlns:xlink="http://www.w3.org/1999/xlink" version="1.1" id="Layer_1" x="0px" y="0px" style="enable-background:new 0 0 1000 1000;" xml:space="preserve" viewBox="0.4 371 999.2 258.6">
<style type="text/css">
	.st0{fill:url(#SVGID_1_);}
	.st1{fill:#FFFFFF;}
	.st2{fill:url(#SVGID_00000101070523519545650200000005023630347110782135_);}
</style>
<g id="Layer_1_00000104703545395544684090000002895906362804713098_">
</g>
<g>
	<g>
		
			<linearGradient id="SVGID_1_" gradientUnits="userSpaceOnUse" x1="0.3953" y1="-483.7" x2="258.9834" y2="-483.7" gradientTransform="matrix(1 0 0 1 0 984)">
			<stop offset="0" style="stop-color:#31BDFD"/>
			<stop offset="1" style="stop-color:#49E7B6"/>
		</linearGradient>
		<circle class="st0" cx="129.7" cy="500.3" r="129.3"/>
		<g>
			<g>
				<g>
					<path class="st1" d="M219.7,500.4c0,2.5-0.1,5-0.3,7.5c-1.6,19.2-9.2,36.8-20.9,50.8c-3.3,3.8-6.8,7.3-10.6,10.6       c-13.9,11.8-31.4,19.4-50.6,20.9v-15.6c14.9-1.6,28.7-7.5,39.7-16.4l-13.2-13.2c-7.6,5.8-16.6,9.7-26.4,11       c-2.5,0.3-5,0.5-7.5,0.5c-2.5,0-5-0.1-7.5-0.5c-9.8-1.3-19-5.2-26.4-11c-3.9-3-7.6-6.7-10.6-10.6c-5.8-7.6-9.7-16.6-11-26.4       h15.4c1,5.6,3.3,11,6.4,15.4c2.9,4.2,6.4,7.7,10.6,10.6c4.6,3.1,9.8,5.4,15.4,6.4c2.5,0.4,5,0.7,7.5,0.7c2.6,0,5.1-0.3,7.5-0.7       c5.6-1,11-3.3,15.4-6.4c4.2-2.9,7.7-6.4,10.6-10.6c3.1-4.6,5.4-9.8,6.4-15.4c0.4-2.5,0.7-5,0.7-7.5c0-2.6-0.3-5.1-0.7-7.5       c-1-5.6-3.3-10.9-6.4-15.4c-2.9-4.2-6.4-7.7-10.6-10.6c-4.6-3.1-9.8-5.4-15.4-6.4c-2.5-0.4-5-0.7-7.5-0.7       c-2.6,0-5.1,0.3-7.5,0.7c-5.6,1-11,3.3-15.4,6.4c-4.2,2.9-7.7,6.4-10.6,10.6c-3.1,4.6-5.4,9.8-6.4,15.4H74.1       c1.3-9.8,5.2-19,11-26.4c3-3.9,6.5-7.6,10.6-10.6c7.6-5.8,16.6-9.7,26.4-11v-18.7c-14.9,1.6-28.7,7.5-39.7,16.5       c-3.9,3.1-7.5,6.7-10.6,10.6c-9,11-14.9,24.7-16.5,39.7c-0.3,2.5-0.4,5-0.4,7.5c0,2.5,0.1,5,0.4,7.5       c1.6,14.9,7.5,28.7,16.5,39.7c3.1,3.9,6.7,7.5,10.6,10.6c11,9,24.7,14.9,39.7,16.4v15.6c-19.2-1.6-36.8-9.3-50.6-20.9       c-3.8-3.3-7.3-6.8-10.6-10.6c-11.8-13.9-19.4-31.4-20.9-50.8c-0.1-2.5-0.3-5-0.3-7.5c0-2.5,0.1-5,0.3-7.5       c1.6-19.2,9.2-36.8,20.9-50.6c3.3-3.8,6.8-7.3,10.6-10.6c13.9-11.8,31.4-19.4,50.6-20.9c2.5-0.1,5-0.3,7.5-0.3s5,0.1,7.5,0.3       c19.2,1.6,36.8,9.2,50.6,20.9l-11,11c-11-9-24.7-14.9-39.7-16.5v18.7c9.8,1.3,19,5.2,26.4,11c3.9,3,7.6,6.5,10.6,10.6       c5.8,7.6,9.7,16.6,11,26.4c0.3,2.5,0.5,5,0.5,7.5c0,2.5-0.1,5-0.5,7.5c-1.3,9.8-5.2,19-11,26.4l13.2,13.2       c9-11,14.9-24.7,16.4-39.7c0.3-2.5,0.4-5,0.4-7.5c0-2.5-0.1-5-0.4-7.5c-1.6-14.9-7.5-28.7-16.4-39.7l11-11       c11.8,13.9,19.4,31.4,20.9,50.6C219.6,495.5,219.7,497.9,219.7,500.4z"/>
				</g>
				<g>
					<path class="st1" d="M152.3,500.3c0,2.6-0.4,5.1-1.3,7.5c-0.3,0.8-0.7,1.6-0.9,2.4l0,0c-2.2,4.6-6,8.4-10.6,10.6       c-0.8,0.4-1.6,0.7-2.4,0.9c-2.4,0.8-4.8,1.3-7.5,1.3c-2.6,0-5.1-0.4-7.5-1.3c-0.8-0.3-1.6-0.7-2.4-0.9       c-4.6-2.2-8.4-6-10.6-10.6c-0.4-0.8-0.7-1.6-0.9-2.4c-0.8-2.4-1.3-4.8-1.3-7.5c0-2.6,0.4-5.1,1.3-7.5c0.3-0.8,0.5-1.6,0.9-2.2       c2.2-4.6,6-8.4,10.6-10.6c0.8-0.4,1.6-0.7,2.4-0.9c2.4-0.8,4.8-1.3,7.5-1.3c2.6,0,5.1,0.4,7.5,1.3c0.8,0.3,1.6,0.7,2.4,0.9       c4.6,2.2,8.4,6,10.6,10.6c0.4,0.8,0.7,1.6,0.9,2.4C151.8,495.2,152.3,497.7,152.3,500.3z"/>
				</g>
			</g>
		</g>
	</g>
	
		<linearGradient id="SVGID_00000017474866232397832970000017359017647266273411_" gradientUnits="userSpaceOnUse" x1="308.6803" y1="-483.9276" x2="999.6047" y2="-483.9276" gradientTransform="matrix(1 0 0 1 0 984)">
		<stop offset="0" style="stop-color:#31BDFD"/>
		<stop offset="1" style="stop-color:#49E7B6"/>
	</linearGradient>
	<path style="fill:url(#SVGID_00000017474866232397832970000017359017647266273411_);" d="M340.7,583.4c-9.8-4.2-17.6-10.3-23.2-18   c-5.6-7.9-8.6-17.1-8.8-27.9h37.7c0.5,7.2,3,12.8,7.6,17s10.9,6.3,18.9,6.3c8.2,0,14.7-1.9,19.3-5.8c4.7-3.9,7-9.1,7-15.5   c0-5.2-1.5-9.5-4.7-12.8c-3.2-3.4-7.1-6-11.9-7.9c-4.7-1.9-11.4-4.1-19.8-6.5c-11.4-3.4-20.7-6.6-27.8-9.9s-13.2-8.2-18.4-14.8   c-5.1-6.6-7.6-15.5-7.6-26.5c0-10.4,2.5-19.4,7.7-27c5.2-7.6,12.6-13.7,21.9-17.8c9.4-4.1,20.1-6.2,32.1-6.2   c18,0,32.9,4.4,44.1,13.2c11.3,8.8,17.5,21.1,18.8,36.8H395c-0.4-6-2.9-11-7.6-14.9c-4.7-3.9-11-5.8-18.9-5.8   c-6.9,0-12.3,1.8-16.5,5.3c-4.1,3.5-6.2,8.6-6.2,15.4c0,4.7,1.5,8.6,4.6,11.7c3,3,7,5.6,11.5,7.6c4.6,1.9,11,4.2,19.5,6.6   c11.4,3.4,20.7,6.6,27.9,10c7.2,3.4,13.4,8.4,18.6,15.1c5.2,6.6,7.7,15.5,7.7,26.4c0,9.4-2.5,18-7.4,26.1   c-4.8,8-11.9,14.5-21.3,19.2c-9.4,4.7-20.6,7.1-33.4,7.1C361.6,589.6,350.5,587.6,340.7,583.4z M501.4,440.9v44h59v27.9h-59v46.5   h66.6V588H466.1V412.2h101.8v28.7H501.4L501.4,440.9z M719.2,412.6V441h-46.7v147.1h-35.2V440.9h-46.7v-28.4L719.2,412.6   L719.2,412.6z M780.1,560h57.7v27.9h-93V412.6h35.2V560z M999.6,412.6l-59.3,114.3v61h-35.2v-61l-59.5-114.3h39.7l37.7,80.1   l37.4-80.1H999.6z"/>
</g>
</svg>